<svg width="700" height="311" viewBox="0 0 700 311" fill="none" xmlns="http://www.w3.org/2000/svg">
<path d="M213.149 132.315C196.498 132.315 183.488 144.955 183.488 161.876C183.488 178.798 196.169 191.33 213.149 191.33C230.129 191.33 243.031 178.582 243.031 161.768C243.031 145.063 230.35 132.315 213.149 132.315ZM213.262 179.135C203.779 179.135 196.831 171.771 196.831 161.881C196.831 151.878 203.667 144.518 213.149 144.518C222.744 144.518 229.688 151.991 229.688 161.881C229.688 171.771 222.744 179.135 213.262 179.135ZM246.668 145.175H254.939V190.236H268.17V133.413H246.668V145.175ZM150.189 144.514C157.138 144.514 162.651 148.799 164.744 155.174H178.749C176.21 141.547 164.964 132.315 150.302 132.315C133.651 132.315 120.64 144.955 120.64 161.881C120.64 178.806 133.322 191.334 150.302 191.334C164.635 191.334 176.102 182.102 178.64 168.363H164.744C162.759 174.737 157.246 179.135 150.298 179.135C140.703 179.135 133.979 171.771 133.979 161.881C133.984 151.878 140.599 144.514 150.189 144.514ZM498.066 156.384L488.363 154.957C483.732 154.3 480.424 152.76 480.424 149.132C480.424 145.175 484.727 143.199 490.568 143.199C496.963 143.199 501.045 145.945 501.927 150.451H514.717C513.282 139.022 504.461 132.319 490.901 132.319C476.896 132.319 467.634 139.463 467.634 149.573C467.634 159.243 473.701 164.851 485.937 166.607L495.64 168.034C500.383 168.692 503.03 170.564 503.03 174.08C503.03 178.586 498.399 180.454 492.004 180.454C484.173 180.454 479.763 177.267 479.101 172.432H466.091C467.306 183.533 476.014 191.334 491.891 191.334C506.337 191.334 515.928 184.74 515.928 173.418C515.928 163.308 508.984 158.032 498.066 156.384ZM261.555 110.005C256.703 110.005 253.063 113.521 253.063 118.355C253.063 123.19 256.699 126.706 261.555 126.706C266.406 126.706 270.047 123.19 270.047 118.355C270.047 113.521 266.406 110.005 261.555 110.005ZM455.727 152.869C455.727 140.561 448.229 132.319 432.352 132.319C417.357 132.319 408.977 139.904 407.321 151.554H420.444C421.105 147.048 424.634 143.311 432.131 143.311C438.859 143.311 442.167 146.278 442.167 149.906C442.167 154.633 436.101 155.839 428.603 156.609C418.459 157.707 405.89 161.223 405.89 174.413C405.89 184.635 413.5 191.226 425.628 191.226C435.11 191.226 441.064 187.269 444.043 181.003C444.484 186.608 448.674 190.236 454.52 190.236H462.238V178.478H455.731V152.869H455.727ZM442.716 167.156C442.716 174.741 436.101 180.346 428.05 180.346C423.086 180.346 418.896 178.257 418.896 173.863C418.896 168.259 425.624 166.72 431.798 166.062C437.752 165.513 441.06 164.194 442.716 161.664V167.156ZM372.479 132.315C365.09 132.315 358.915 135.394 354.505 140.557V109.456H341.274V190.236H354.284V182.763C358.695 188.147 364.982 191.334 372.479 191.334C388.356 191.334 400.377 178.806 400.377 161.881C400.377 144.955 388.136 132.315 372.479 132.315ZM370.495 179.135C361.012 179.135 354.064 171.771 354.064 161.881C354.064 151.991 361.12 144.518 370.603 144.518C380.197 144.518 386.921 151.882 386.921 161.881C386.921 171.771 379.977 179.135 370.495 179.135ZM309.628 132.315C301.027 132.315 295.402 135.83 292.094 140.778V133.413H278.972V190.232H292.203V159.351C292.203 150.668 297.716 144.514 305.875 144.514C313.485 144.514 318.224 149.898 318.224 157.703V190.236H331.455V156.717C331.459 142.425 324.074 132.315 309.628 132.315ZM579 160.012C579 143.748 567.092 132.319 551.102 132.319C534.123 132.319 521.661 145.067 521.661 161.881C521.661 179.576 535.005 191.334 551.323 191.334C565.107 191.334 575.913 183.2 578.667 171.662H564.883C562.898 176.718 558.047 179.576 551.539 179.576C543.047 179.576 536.652 174.3 535.221 165.068H578.996V160.012H579ZM535.995 155.615C538.092 147.701 544.046 143.856 550.882 143.856C558.379 143.856 564.113 148.142 565.436 155.615H535.995Z" fill="#231F20"/>
</svg>
